<?xml version="1.0" encoding="utf-8"?>
<!-- Generator: Adobe Illustrator 24.1.0, SVG Export Plug-In . SVG Version: 6.00 Build 0)  -->
<svg version="1.1" id="OBJECTS" xmlns="http://www.w3.org/2000/svg" xmlns:xlink="http://www.w3.org/1999/xlink" x="0px" y="0px"
	 viewBox="0 0 845.62 339.06" style="enable-background:new 0 0 845.62 339.06;" xml:space="preserve">
<style type="text/css">
	.st0{fill:#606060;}
	.st1{fill:#FFFFFF;}
	.st2{clip-path:url(#SVGID_2_);fill:url(#SVGID_3_);}
</style>
<g>
	<path class="st0" d="M38.3,144.28V23.38h15.02l12.67,14.84v93.21h13.57l10.86-8.69h0.18V47.45l27.69-10.86v86.15l10.86,8.69h17.19
		V38.22l12.67-14.84h15.02v120.9l-12.85,14.84h-38.01l-18.82-17.55l-18.82,17.55H51.15L38.3,144.28z"/>
</g>
<g>
	<path class="st0" d="M200.71,23.38h83.1V38.4l-14.84,12.67h-55.41v13.57l8.69,10.86v0.18h28.66l10.86,27.69h-39.52l-8.69,10.86
		v17.19h54.31l14.84,12.67v15.02h-82l-14.84-12.85v-38.01l17.55-18.82l-17.55-18.82V36.23L200.71,23.38z"/>
</g>
<g>
	<g>
		<path class="st0" d="M267.87,307.42H82.74V292.4l14.84-12.67h157.44v-13.57l-8.69-10.86v-0.18H144.06l-10.86-27.69h113.13
			l8.69-10.86v-17.19H151.84L137,186.7v-15.02h130.87l14.84,12.85v38.01l-17.55,18.82l17.55,18.82v34.39L267.87,307.42z"/>
	</g>
</g>
<g>
	<path class="st0" d="M56.2,171.51h67.87v15.02l-14.84,12.67H69.05v13.57l8.69,10.86v0.18h35.52l10.86,27.69H77.74l-8.69,10.86
		l0.1,44.88H56.2L41.36,294.4v-38.01l17.55-18.82l-17.55-18.82v-34.39L56.2,171.51z"/>
</g>
<g>
	<path class="st1" d="M414.32,34.77l-24,56.48h-11.2l-4.24-43.68l-19.6,43.68h-11.2l-4.16-56.48h10l1.68,45.92l20.48-45.92h10.08
		l4.32,46.08l17.84-46.08C404.32,34.77,414.32,34.77,414.32,34.77z"/>
	<path class="st1" d="M460.16,37.01c3.63,1.97,6.41,4.77,8.36,8.4c1.95,3.63,2.92,7.81,2.92,12.56c0,2.24-0.19,4.4-0.56,6.48
		c-0.91,5.33-2.83,10.08-5.76,14.24c-2.93,4.16-6.63,7.4-11.08,9.72c-4.45,2.32-9.35,3.48-14.68,3.48c-5.01,0-9.33-0.99-12.96-2.96
		s-6.41-4.75-8.36-8.32c-1.95-3.57-2.92-7.73-2.92-12.48c0-2.03,0.21-4.27,0.64-6.72c0.91-5.33,2.84-10.07,5.8-14.2
		s6.65-7.36,11.08-9.68s9.31-3.48,14.64-3.48C452.24,34.05,456.53,35.04,460.16,37.01z M436.68,44.97
		c-3.07,1.63-5.64,3.95-7.72,6.96s-3.49,6.55-4.24,10.6c-0.27,1.39-0.4,2.96-0.4,4.72c0,5.01,1.41,8.95,4.24,11.8
		c2.83,2.85,6.69,4.28,11.6,4.28c3.52,0,6.8-0.81,9.84-2.44c3.04-1.63,5.61-3.95,7.72-6.96c2.11-3.01,3.51-6.55,4.2-10.6
		c0.27-1.39,0.4-2.99,0.4-4.8c0-4.96-1.41-8.87-4.24-11.72c-2.83-2.85-6.67-4.28-11.52-4.28C443.04,42.53,439.74,43.35,436.68,44.97
		z"/>
	<path class="st1" d="M517.76,38.41c2.83,2.43,4.24,5.72,4.24,9.88c0,1.33-0.11,2.56-0.32,3.68c-0.75,4.43-2.61,8.05-5.6,10.88
		s-6.91,4.64-11.76,5.44l10.8,22.96h-10.24L494.8,68.69h-6.48l-4,22.56h-9.12l9.92-56.48h19.92
		C510.69,34.77,514.93,35.99,517.76,38.41z M512.56,50.13c0-5.01-3.2-7.52-9.6-7.52h-10l-3.52,19.6h10c7.47,0,11.76-3.25,12.88-9.76
		C512.48,51.65,512.56,50.88,512.56,50.13z"/>
	<path class="st1" d="M533.44,84.13h19.44l-1.2,7.12h-28.64l9.92-56.48h9.12L533.44,84.13z"/>
	<path class="st1" d="M606.12,77.85c-3.07,4.24-7.03,7.53-11.88,9.88s-10.37,3.52-16.56,3.52H558.8l9.92-56.48h18.88
		c8.11,0,14.33,1.93,18.68,5.8s6.52,9.21,6.52,16.04c0,2.13-0.19,4.24-0.56,6.32C611.22,68.64,609.18,73.61,606.12,77.85z
		 M594.91,77.77c4.24-3.49,6.92-8.44,8.04-14.84c0.32-1.71,0.48-3.31,0.48-4.8c0-4.91-1.53-8.68-4.6-11.32
		c-3.07-2.64-7.53-3.96-13.4-3.96h-8.96l-7.12,40.16h8.96C585.14,83.01,590.68,81.27,594.91,77.77z"/>
	<path class="st1" d="M350.64,139.82l-2.96,17.12h20.72l-1.28,7.04H346.4l-3.04,17.52h23.12l-1.28,7.44h-32.32l9.92-56.48h32.32
		l-1.28,7.36H350.64z"/>
	<path class="st1" d="M421.4,175.54c-3.07,4.24-7.03,7.53-11.88,9.88s-10.37,3.52-16.56,3.52h-18.88l9.92-56.48h18.88
		c8.11,0,14.33,1.93,18.68,5.8c4.35,3.87,6.52,9.21,6.52,16.04c0,2.13-0.19,4.24-0.56,6.32C426.5,166.33,424.46,171.3,421.4,175.54z
		 M410.2,175.46c4.24-3.49,6.92-8.44,8.04-14.84c0.32-1.71,0.48-3.31,0.48-4.8c0-4.91-1.53-8.68-4.6-11.32
		c-3.07-2.64-7.53-3.96-13.4-3.96h-8.96l-7.12,40.16h8.96C400.42,180.7,405.96,178.96,410.2,175.46z"/>
	<path class="st1" d="M450.48,132.46l-5.84,33.52c-0.32,1.65-0.48,3.17-0.48,4.56c0,3.47,0.91,6.05,2.72,7.76
		c1.81,1.71,4.37,2.56,7.68,2.56c3.95,0,7.24-1.23,9.88-3.68s4.41-6.19,5.32-11.2l5.92-33.52h9.12l-5.84,33.52
		c-1.39,7.73-4.44,13.59-9.16,17.56s-10.36,5.96-16.92,5.96c-5.55,0-9.93-1.45-13.16-4.36s-4.84-7.21-4.84-12.92
		c0-2.08,0.19-4.16,0.56-6.24l5.92-33.52H450.48z"/>
	<path class="st1" d="M537,137.18c3.97,3.52,6.2,8.29,6.68,14.32h-9.6c-0.69-3.41-2.32-6.12-4.88-8.12s-5.95-3-10.16-3
		c-3.36,0-6.52,0.83-9.48,2.48s-5.47,4.01-7.52,7.08s-3.43,6.65-4.12,10.76c-0.32,1.65-0.48,3.28-0.48,4.88
		c0,4.75,1.32,8.49,3.96,11.24c2.64,2.75,6.15,4.12,10.52,4.12c4.16,0,7.88-1,11.16-3s5.88-4.68,7.8-8.04h9.6
		c-2.67,6.03-6.59,10.79-11.76,14.28s-11.23,5.24-18.16,5.24c-4.64,0-8.67-0.93-12.08-2.8c-3.41-1.87-6.01-4.48-7.8-7.84
		c-1.79-3.36-2.68-7.28-2.68-11.76c0-2.19,0.19-4.29,0.56-6.32c0.96-5.6,2.95-10.57,5.96-14.92c3.01-4.35,6.79-7.75,11.32-10.2
		s9.47-3.68,14.8-3.68C527.57,131.9,533.02,133.66,537,137.18z"/>
	<path class="st1" d="M582.24,176.7H558.4l-6.48,12.24h-9.76l30.56-55.6h10.48l10.96,55.6h-9.76L582.24,176.7z M580.96,169.66
		l-4.72-26.4l-14.08,26.4H580.96z"/>
	<path class="st1" d="M647.12,132.46l-1.28,7.36h-15.76l-8.64,49.12h-9.2l8.64-49.12H605.2l1.28-7.36H647.12z"/>
	<path class="st1" d="M663.03,132.46l-9.92,56.48h-9.12l9.92-56.48H663.03z"/>
	<path class="st1" d="M711.75,134.7c3.63,1.97,6.41,4.77,8.36,8.4c1.95,3.63,2.92,7.81,2.92,12.56c0,2.24-0.19,4.4-0.56,6.48
		c-0.91,5.33-2.83,10.08-5.76,14.24s-6.63,7.4-11.08,9.72s-9.35,3.48-14.68,3.48c-5.01,0-9.33-0.99-12.96-2.96s-6.41-4.75-8.36-8.32
		c-1.95-3.57-2.92-7.73-2.92-12.48c0-2.03,0.21-4.27,0.64-6.72c0.91-5.33,2.84-10.07,5.8-14.2c2.96-4.13,6.65-7.36,11.08-9.68
		c4.43-2.32,9.31-3.48,14.64-3.48C703.83,131.74,708.13,132.73,711.75,134.7z M688.27,142.66c-3.07,1.63-5.64,3.95-7.72,6.96
		c-2.08,3.01-3.49,6.55-4.24,10.6c-0.27,1.39-0.4,2.96-0.4,4.72c0,5.01,1.41,8.95,4.24,11.8s6.69,4.28,11.6,4.28
		c3.52,0,6.8-0.81,9.84-2.44c3.04-1.63,5.61-3.95,7.72-6.96c2.11-3.01,3.51-6.55,4.2-10.6c0.27-1.39,0.4-2.99,0.4-4.8
		c0-4.96-1.41-8.87-4.24-11.72s-6.67-4.28-11.52-4.28C694.63,140.22,691.34,141.04,688.27,142.66z"/>
	<path class="st1" d="M772.47,188.94h-9.12l-20.08-41.68l-7.36,41.68h-9.12l9.92-56.4h9.12l20.08,41.84l7.36-41.84h9.12
		L772.47,188.94z"/>
	<path class="st1" d="M376.16,230.15l-1.28,7.36h-24.24l-3.04,17.52h20l-1.28,7.04h-20L342,286.63h-9.12l9.92-56.48L376.16,230.15
		L376.16,230.15z"/>
	<path class="st1" d="M392.16,237.51l-2.96,17.12h20.72l-1.28,7.04h-20.72l-3.04,17.52H408l-1.28,7.44H374.4l9.92-56.48h32.32
		l-1.28,7.36L392.16,237.51L392.16,237.51z"/>
	<path class="st1" d="M452.12,280.07c-1.68,2.13-3.92,3.85-6.72,5.16s-6.07,1.96-9.8,1.96c-4,0-7.44-0.71-10.32-2.12
		s-5.05-3.35-6.52-5.8c-1.47-2.45-2.17-5.23-2.12-8.32h9.68c-0.11,2.45,0.63,4.56,2.2,6.32s3.99,2.64,7.24,2.64
		c3.04,0,5.44-0.91,7.2-2.72s2.64-4.05,2.64-6.72c0-1.81-0.48-3.32-1.44-4.52c-0.96-1.2-2.17-2.19-3.64-2.96s-3.45-1.64-5.96-2.6
		c-2.99-1.17-5.4-2.25-7.24-3.24s-3.4-2.39-4.68-4.2s-1.92-4.13-1.92-6.96c0-1.23,0.11-2.45,0.32-3.68
		c0.69-3.89,2.81-7.01,6.36-9.36s7.88-3.52,13-3.52c6.03,0,10.57,1.4,13.64,4.2s4.68,6.41,4.84,10.84h-9.84
		c0-2.13-0.72-3.96-2.16-5.48c-1.44-1.52-3.65-2.28-6.64-2.28c-2.77,0-5.04,0.73-6.8,2.2c-1.76,1.47-2.64,3.56-2.64,6.28
		c0,1.65,0.47,3.04,1.4,4.16c0.93,1.12,2.09,2.03,3.48,2.72s3.31,1.52,5.76,2.48c2.99,1.12,5.43,2.2,7.32,3.24
		c1.89,1.04,3.51,2.49,4.84,4.36s2,4.27,2,7.2c0,1.33-0.11,2.61-0.32,3.84C454.85,275.65,453.8,277.94,452.12,280.07z"/>
	<path class="st1" d="M507.92,230.15l-1.28,7.36h-15.76l-8.64,49.12h-9.2l8.64-49.12H466l1.28-7.36L507.92,230.15L507.92,230.15z"/>
	<path class="st1" d="M523.84,230.15l-9.92,56.48h-9.12l9.92-56.48L523.84,230.15L523.84,230.15z"/>
	<path class="st1" d="M540.56,230.15l8,46.72l24.56-46.72h9.92l-30.32,56.48h-11.68l-10.4-56.48L540.56,230.15L540.56,230.15z"/>
	<path class="st1" d="M615.84,274.39H592l-6.48,12.24h-9.76l30.56-55.6h10.48l10.96,55.6H618L615.84,274.39z M614.56,267.35
		l-4.72-26.4l-14.08,26.4H614.56z"/>
	<path class="st1" d="M644.87,279.51h19.44l-1.2,7.12h-28.64l9.92-56.48h9.12L644.87,279.51z"/>
	<path class="st1" d="M728.79,231.95c2.67,2.37,4,5.48,4,9.32c0,0.91-0.08,1.89-0.24,2.96c-0.59,3.36-2.11,6.15-4.56,8.36
		s-5.55,3.56-9.28,4.04l-0.08,0.4c3.2,0.96,5.72,2.47,7.56,4.52s2.76,4.76,2.76,8.12c0,1.23-0.11,2.37-0.32,3.44
		c-0.69,4.21-2.76,7.61-6.2,10.2c-3.44,2.59-7.99,3.88-13.64,3.88c-6.03,0-10.68-1.4-13.96-4.2c-3.28-2.8-4.92-6.87-4.92-12.2
		c0-0.8,0.03-1.41,0.08-1.84h8.96c-0.21,3.25,0.53,5.81,2.24,7.68c1.71,1.87,4.45,2.8,8.24,2.8c2.83,0,5.16-0.71,7-2.12
		s2.95-3.27,3.32-5.56c0.16-0.8,0.24-1.55,0.24-2.24c0-2.77-1.08-4.91-3.24-6.4s-5.29-2.24-9.4-2.24h-2.08l1.36-7.52h2.08
		c8.75,0.11,13.65-2.69,14.72-8.4c0.11-0.85,0.16-1.47,0.16-1.84c0-2.24-0.68-3.97-2.04-5.2s-3.29-1.84-5.8-1.84
		c-2.83,0-5.35,0.85-7.56,2.56c-2.21,1.71-3.67,4.13-4.36,7.28h-8.96c1.12-5.49,3.65-9.79,7.6-12.88c3.95-3.09,8.88-4.64,14.8-4.64
		C722.29,228.39,726.13,229.58,728.79,231.95z"/>
</g>
<g>
	<g>
		<defs>
			<path id="SVGID_1_" d="M38.3,144.28V23.38h15.02l12.67,14.84v93.21h13.57l10.86-8.69h0.18V47.45l27.69-10.86v86.15l10.86,8.69
				h17.19V38.22l12.67-14.84h15.02v120.9l-12.85,14.84h-38.01l-18.82-17.55l-18.82,17.55H51.15L38.3,144.28z M200.71,23.38h83.1
				V38.4l-14.84,12.67h-55.41v13.57l8.69,10.86v0.18h28.66l10.86,27.69h-39.52l-8.69,10.86v17.19h54.31l14.84,12.67v15.02h-82
				l-14.84-12.85v-38.01l17.55-18.82l-17.55-18.82V36.23L200.71,23.38z M267.87,307.42H82.74V292.4l14.84-12.67h157.44v-13.57
				l-8.69-10.86v-0.18H144.06l-10.86-27.69h113.13l8.69-10.86v-17.19H151.84L137,186.7v-15.02h130.87l14.84,12.85v38.01
				l-17.55,18.82l17.55,18.82v34.39L267.87,307.42z M56.2,171.51h67.87v15.02l-14.84,12.67H69.05v13.57l8.69,10.86v0.18h35.52
				l10.86,27.69H77.74l-8.69,10.86l0.1,44.88H56.2L41.36,294.4v-38.01l17.55-18.82l-17.55-18.82v-34.39L56.2,171.51z"/>
		</defs>
		<clipPath id="SVGID_2_">
			<use xlink:href="#SVGID_1_"  style="overflow:visible;"/>
		</clipPath>
		
			<linearGradient id="SVGID_3_" gradientUnits="userSpaceOnUse" x1="-20.4302" y1="-233.9013" x2="261.6479" y2="-233.9013" gradientTransform="matrix(1.0356 1.0356 0.8867 -0.8867 250.8828 -166.4378)">
			<stop  offset="0" style="stop-color:#00ECCD"/>
			<stop  offset="0.6834" style="stop-color:#764AE3"/>
			<stop  offset="0.7362" style="stop-color:#7646DD"/>
			<stop  offset="0.8045" style="stop-color:#763ACD"/>
			<stop  offset="0.8812" style="stop-color:#7628B3"/>
			<stop  offset="0.9637" style="stop-color:#760D8E"/>
			<stop  offset="1" style="stop-color:#76007B"/>
		</linearGradient>
		<polygon class="st2" points="180.3,446.06 -111.82,153.95 156.47,-114.34 448.59,177.78 		"/>
	</g>
</g>
</svg>
